<svg xmlns="http://www.w3.org/2000/svg" width="500" height="500" xmlns:v="https://vecta.io/nano"><path d="M343 79l3.535 1.859c8.907 4.86 16.876 10.67 24.86 16.905 1.329 1.024 2.693 2.001 4.065 2.966L377 102v2l1.798.814c2.208 1.188 3.668 2.393 5.437 4.154l1.738 1.73 1.777 1.801 1.824 1.801 1.723 1.73 1.573 1.58C394 119 394 119 394 121h2v2h2c15.3 16.424 25.866 37.18 34.126 57.821l2.143 5.175C451.114 227.941 447.614 278.102 433 320l-.992 2.848c-6.022 15.96-14.817 31.947-25.051 45.531-2.63 3.522-5.069 7.167-7.512 10.82L398 381h-2v2h-2l-.754 1.731C382.095 405.038 356.005 419.736 336 430l-2.268 1.187C320.958 437.823 307.913 442.365 294 446l-2.456.685c-13.683 3.704-27.593 3.73-41.669 3.815l-2.818.032c-13.481.118-25.957-1.374-39.057-4.532l-2.591-.617C185.227 440.546 166.941 432.366 149 422v-2l-2.598-.703c-3.828-1.459-6.695-3.495-9.84-6.047l-1.811-1.447c-7.26-5.892-14.024-12.318-20.751-18.803l-2.723-2.598c-4.013-3.9-4.013-3.9-5.277-5.402v-2h-2c-1.649-1.924-3.177-3.847-4.687-5.875l-1.357-1.796C94.18 370.303 90.516 365.211 87 360l-1.668-2.395C75.571 343.064 69.245 326.618 64 310l-.734-2.324c-15.427-49.794-9.164-102.501 14.504-148.527C82.956 149.33 89.127 140.081 95.5 131l1.277-1.836c1.022-1.427 2.116-2.801 3.223-4.164h2l.707-1.664C106.871 115.814 114.23 109.218 121 104h2v-2c1.461-1.289 1.461-1.289 3.375-2.625l1.898-1.352C130 97 130 97 132 97v-2c2.197-1.635 4.389-3.143 6.688-4.625l2.071-1.351 4.229-2.731 5.306-3.449C208.164 45.876 283.455 46.941 343 79z" fill="#f7f3e4"/><path d="M340.75 168.688c6.75 6.938 7.435 15.092 7.344 24.359-.29 9.15-.29 9.15-3.094 11.953-3 .25-3 .25-6 0-3.263-3.263-2.398-8.011-2.479-12.439-.187-5.204-1.042-8.947-3.521-13.561-4.086-2.724-7.202-2.858-12-2-6.355 2.976-13.803 8.606-17 15h-2l-.715 1.582c-1.352 2.543-2.922 4.871-4.56 7.238-9.769 14.166-17.046 28.597-21.726 45.18l-1.031 3.613c-3.127 12.55-4.488 27.603 2.063 39.215 2.197 3.176 3.979 4.175 7.656 5.297 6.609.389 12.583-3.221 18.313-6.125v-2h2l.773-1.727c1.364-2.529 2.983-4.467 4.852-6.648 7.713-9.502 13.07-20.654 18.375-31.625l-1.681.627-7.569 2.811-2.645.986-2.559.947-2.349.873c-4.524 1.556-8.373 2.024-13.198 1.756-2-2-2-2-2.625-4.812.625-3.187.625-3.187 3.742-5.566 5.526-3.257 11.568-5.151 17.645-7.106l5.91-1.941c28.013-9.232 28.013-9.232 35.328-5.574.313 3.313.313 3.313 0 7-4.379 3.848-10.302 5-16 5l-.52 2.76c-1.766 9.127-3.907 18.08-6.355 27.052l-1.067 3.955L331 286l-.792 2.896-6.333 22.417a235.39 235.39 0 0 0-3.437 13.438c-.901 3.983-1.837 7.942-2.937 11.875l-.656 2.352c-.957 2.295-1.89 3.495-3.844 5.023-3.062.375-3.062.375-6 0-2.784-4.176-1.862-7.285-1-12 2.571-11.99 5.669-23.866 9.047-35.652a220.21 220.21 0 0 0 2.078-7.785L318 285l-1.469 1.941C310.612 294.579 303.737 303.32 294 306c-7.975.906-15.425 1.009-22-4-7.117-5.796-11.23-12.981-13-22-.304-3.546-.334-7.068-.312-10.625l.015-2.971c.121-7.506 1.112-14.21 3.298-21.404l.996-3.895c6.283-24.074 19.18-46.751 37.004-64.105l1.922-1.914c11.411-10.596 25.132-14.803 38.828-6.398z" fill="#0b0b09"/><path d="M249 170c1.691 1.293 1.691 1.293 3 3-.221 13.063-5.401 26.566-8.845 39.097L238 232l2.082-.07 2.73-.055 2.707-.07C248 232 248 232 251 234c.313 2.5.313 2.5 0 5-4.223 4.223-9.342 4.346-15 5-2.209 8.415-4.221 16.832-5.875 25.375-1.717 8.844-3.705 17.609-5.764 26.379l-4.009 17.988-.813 3.861-1.534 7.41-.708 3.385-.614 2.99c-.652 2.496-1.25 4.466-2.683 6.612-3.5.875-3.5.875-7 1-2-2-2-2-2.277-3.992.019-6.64 1.048-12.688 2.589-19.133 1.503-6.465 2.905-12.923 4.102-19.453 1.517-8.27 3.287-16.475 5.12-24.68l1.593-7.199 1.033-4.645.47-2.14c.902-4.012 2-7.881 3.369-11.758-11.67.899-23.138 1.94-34.59 4.414-3.535.607-6.831.687-10.41.586l-.359 3.863c-.582 5.211-1.681 10.228-2.891 15.324l-1.352 5.781-.7 2.988-2.034 9.262-.655 3.031-1.221 5.781-.577 2.638-.491 2.321c-.853 2.381-1.686 3.511-3.72 5.011-3.625-.187-3.625-.187-7-1-3.758-7.517.049-18.16 1.826-25.932l1.422-6.39c1.56-7.03 3.295-13.897 5.752-20.678l-3.437 1c-4.428 1.095-9.033 1.831-13.562 1-1.773-1.359-1.773-1.359-3-3 .245-3.342.605-4.605 3-7 4.239-1.659 8.379-2.483 12.875-3.125l3.492-.508L168 241c3.055-11.418 6.034-22.842 8.625-34.375l.615-2.732 2.314-10.437 1.57-7.08.444-2.099c.84-3.711 1.703-6.554 4.431-9.276 3.141-.458 5.06-.666 7.703 1.207 1.794 2.48 1.448 3.927 1.047 6.918l-.328 2.695C194 188 194 188 193 189c-.455 1.908-.862 3.827-1.25 5.75-1.503 7.212-3.183 14.372-4.904 21.535l-4.268 18.414C182 237 182 237 181 239l5-.375 2.813-.211c3.11-.404 6.058-1.097 9.09-1.888 3.483-.873 7.001-1.521 10.535-2.151l2.24-.4c5.177-.88 10.063-1.262 15.323-.975l.324-3.773c.642-5.756 2.036-11.254 3.488-16.852l.816-3.202 5.505-20.892c1.129-4.272 2.109-8.575 3.059-12.891 1.773-5.243 4.478-6.057 9.809-5.391z" fill="#0b0c09"/><path d="M307 328c5.571 5.143 5.571 5.143 6 9h3l-1-6h3l-.812 4.813-.457 2.707c-.798 2.71-1.478 3.81-3.73 5.48-3.062.375-3.062.375-6 0-2.195-3.293-2.204-3.75-1.687-7.437l.301-2.309c.364-2.121.833-4.176 1.387-6.254z" fill="#141411"/><path d="M307 240l2 1-6 4 1 6 5 1c-3.635 2.326-6.76 2.314-11 2-2-2-2-2-2.625-4.812.625-3.187.625-3.187 2.309-4.656 3.047-1.923 5.892-3.39 9.316-4.531z" fill="#20221e"/><path d="M219 316c2.082 3.123 2.238 3.539 1.977 7.012l-.156 2.295-.195 2.381-.172 2.416L220 336l-2-4-2 4c-1.263-2.527-.854-3.417-.223-6.133l.557-2.441.604-2.551.592-2.574L219 316z" fill="#d5d6c6"/><path d="M328 246c-1.646 5.685-4.29 10.767-7 16-1.125-3.766-1.125-3.766 0-5.875 1.392-2.958.708-5.01 0-8.125 2.647-1.461 3.894-2 7-2z" fill="#dcdcd3"/><path d="M313 292l-3.25 3.375-1.828 1.898c-1.892 1.7-3.604 2.711-5.922 3.727l1-7c3.802-2.534 5.684-3.339 10-2z" fill="#1a1d1a"/><path d="M224 218l5 1-3 14c-1.994-3.988-2.227-5.471-2.125-9.75l.055-2.984L224 218z" fill="#e6e4d6"/><path d="M330 176l2 2c-3.015 1.005-5.042 1.103-8.187 1.063l-2.73-.027L319 179v2l-3 1v-3c4.089-3.562 8.809-3.785 14-3z" fill="#d8d9ca"/><path d="M318 284c1.239 3.718.57 5.439-.437 9.188l-.871 3.293L316 299l-.875-1.812c-1.172-2.381-1.172-2.381-3.125-5.187l6-8z" fill="#ccccc8"/><path d="M273 251c1.125 1.625 1.125 1.625 2 4l-2 6c-.38 2.951-.504 5.903-.625 8.875l-.117 2.375L272 278h-1c-.369-19.005-.369-19.005 2-27z" fill="#cecdc2"/><path d="M266 232c4 4.75 4 4.75 4 7l-7 3 3-10z" fill="#242521"/><path d="M159 278c1.361 2.722.704 4.183.063 7.125l-.59 2.758L158 290l-2-3h-2l-1-5 1.875-.312c2.49-.563 2.49-.563 4.125-3.687z" fill="#e4e5d8"/><path d="M309 278c-1.369 2.95-2.878 5.525-5 8h-2v-2l-2-1 1-2h2l1.438-1.5C306 278 306 278 309 278z" fill="#e4e3d7"/><path d="M339 251l1 4 3-1v2l-2 1.625c-2.935 3.485-2.298 5.911-2 10.375l-3-1c.59-5.508 1.567-10.649 3-16z" fill="#c8c8bc"/><path d="M317 250v2l-5 1v2h-13v-1l7.875-2 2.262-.578C314.773 250 314.773 250 317 250z" fill="#bebfb6"/><path d="M226 228c1.429 2.354 2.087 3.48 1.625 6.25L227 236h-3v-2l-10 1c3.204-2.136 4.019-2.231 7.688-2.125l2.449.055L226 233v-5z" fill="#44433e"/><path d="M246 198h1v14l-2-2-2 3c.642-5.135 1.683-9.994 3-15z" fill="#e0dfd0"/><path d="M224 244v5l-2 1 1-4h-10c4.433-2.955 5.789-3.02 11-2z" fill="#454640"/><path d="M306 172l1 2c-3.147 3.268-6.494 6.131-10 9l-2-1 4.375-4.437 2.461-2.496C304 173 304 173 306 172z" fill="#26261f"/><path d="M305 283c1 3 1 3 .313 5.625C304 291 304 291 302 291.938l-2 .063-2-2 4-2v-2h2l1-3z" fill="#1e201c"/><path d="M272 278l1.375 2 1.625 2h2v4l1 5c-3.58-3.341-5.897-5.738-6.125-10.75L272 278z" fill="#e3e3d7"/><path d="M170 273h3l-1 9c-3-3-3-3-3.25-5.625C169 274 169 274 170 273z" fill="#191914"/><path d="M166 253l-1 7h-1v-5l-1.937.5c-4.038.659-7.981.58-12.062.5v-1l6.313-1 3.551-.562C163 253 163 253 166 253z" fill="#adada5"/><path d="M205 337c6.75.875 6.75.875 9 2l-4.25 1.5-2.391.844C205 342 205 342 201 342v-4l3 1 1-2z" fill="#dadbd0"/><path d="M182 232c2 3 2 3 2 6l10-1c-2 2-2 2-4.602 2.195l-3.023-.07-3.039-.055L181 239l1-7z" fill="#a8a69f"/><path d="M244 192h3l-.375 5.313-.211 2.988C246 203 246 203 244 206v-14z" fill="#35372f"/><path d="M332 279l2 9-5 4c.656-4.485 1.701-8.669 3-13z" fill="#c1bfb0"/><path d="M156 304l1 2h9c-1.276 2.552-2.372 2.995-5 4-3-1-3-1-6-3l1-3z" fill="#dbd9ce"/><path d="M217 270h1l.25 4.75.141 2.672C218 280 218 280 214 284l3-14z" fill="#4b4a45"/><path d="M291.688 291.375L294 292c-2.398 2.398-3.333 2.343-6.625 2.625l-2.477.227L283 295c6-4 6-4 8.688-3.625z" fill="#d3d3c7"/><path d="M259 280c1.838 3.677 2.937 7.05 4 11l-4-1v-10z" fill="#c8c9be"/><path d="M212 281l3 1-1 6h-3c-1-3-1-3-1-6l2-1z" fill="#e9e9d9"/><path d="M257 250l3 1c.188 2.375.188 2.375 0 5l-3 2c-.981-3.053-.981-4.947 0-8z" fill="#f9fbf2"/><path d="M172 222c1.417 4.251.193 6.719-1 11-1.858-3.135-2.201-5.375-2-9h3v-2z" fill="#e0dfd2"/><path d="M210 304l3 2-.875 1.625c-1.292 2.728-2.211 5.501-3.125 8.375-1.456-4.521-.27-7.516 1-12z" fill="#2f2f2b"/><path d="M251 235h1l1 10h-3c-1.158-4.054-.837-6.218 1-10z" fill="#e7e5d9"/><path d="M323 310l4 3-2 7h-1l-1-10z" fill="#e1e0cf"/><path d="M233 251h1c1.199 5.449.914 8.222-2 13-1.073-3.272-.893-5.429-.062-8.75l.59-2.422L233 251z" fill="#adada5"/></svg>